# xmcd
#
# Track frame offsets:
#  150
#  5440
#  28879
#  58354
#  77816
#  98854
#  108233
#  132833
#  156345
#  186346
#  213986
#  235580
#
# Disc length: 3552 seconds
#
# Revision: 0
# Processed by: cddbd v1.5.1PL0 Copyright (c) Steve Scherf et al.
# Submitted via: Collectorz.com Music Collector 6.9
#
DISCID=a00dde0c
DTITLE=Bonnie Raitt - Palace Theatre - Albany, NY - Disc 1
DYEAR=2005
DGENRE=
TTITLE0=Intro
TTITLE1=Unnecessarily Mercenary 
TTITLE2=God Was in the Water  
TTITLE3=I Will Not Be Broken
TTITLE4=Gnawin' On It  
TTITLE5=Band Introductions
TTITLE6=I Don't Want Anything To Change
TTITLE7=Crooked Crown  
TTITLE8=Nick Of Time  
TTITLE9=Luck Of the Draw
TTITLE10=Papa Come Quick
TTITLE11=Mighty Tight Woman  
EXTD=
EXTT0=
EXTT1=
EXTT2=
EXTT3=
EXTT4=
EXTT5=
EXTT6=
EXTT7=
EXTT8=
EXTT9=
EXTT10=
EXTT11=
PLAYORDER=
